<svg width="502" height="502" xmlns="http://www.w3.org/2000/svg"><g transform="translate(1 1)" fill="none" fill-rule="evenodd"><text font-family="OpenSans-Bold, Open Sans" font-size="10" font-weight="bold" fill="#0C1215"><tspan x="241.4" y="297">100</tspan></text><text font-family="OpenSans-Bold, Open Sans" font-size="10" font-weight="bold" fill="#0C1215"><tspan x="241.4" y="211">100</tspan></text><text font-family="OpenSans-Bold, Open Sans" font-size="10" font-weight="bold" fill="#0C1215"><tspan x="281.4" y="253">100</tspan></text><text font-family="OpenSans-Bold, Open Sans" font-size="10" font-weight="bold" fill="#0C1215"><tspan x="201.4" y="253">100</tspan></text><text font-family="OpenSans-Bold, Open Sans" font-size="10" font-weight="bold" fill="#0C1215"><tspan x="151.4" y="253">200</tspan></text><text font-family="OpenSans-Bold, Open Sans" font-size="10" font-weight="bold" fill="#0C1215"><tspan x="101.4" y="253">300</tspan></text><text font-family="OpenSans-Bold, Open Sans" font-size="10" font-weight="bold" fill="#0C1215"><tspan x="51.4" y="253">400</tspan></text><text font-family="OpenSans-Bold, Open Sans" font-size="10" font-weight="bold" fill="#0C1215"><tspan x="1.4" y="253">500</tspan></text><text font-family="OpenSans-Bold, Open Sans" font-size="10" font-weight="bold" fill="#0C1215"><tspan x="331.4" y="253">200</tspan></text><text font-family="OpenSans-Bold, Open Sans" font-size="10" font-weight="bold" fill="#0C1215"><tspan x="381.4" y="253">300</tspan></text><text font-family="OpenSans-Bold, Open Sans" font-size="10" font-weight="bold" fill="#0C1215"><tspan x="431.4" y="253">400</tspan></text><text font-family="OpenSans-Bold, Open Sans" font-size="10" font-weight="bold" fill="#0C1215"><tspan x="481.4" y="253">500</tspan></text><text font-family="OpenSans-Bold, Open Sans" font-size="10" font-weight="bold" fill="#0C1215"><tspan x="241.4" y="161">200</tspan></text><text font-family="OpenSans-Bold, Open Sans" font-size="10" font-weight="bold" fill="#0C1215"><tspan x="241.4" y="111">300</tspan></text><text font-family="OpenSans-Bold, Open Sans" font-size="10" font-weight="bold" fill="#0C1215"><tspan x="241.4" y="61">400</tspan></text><text font-family="OpenSans-Bold, Open Sans" font-size="10" font-weight="bold" fill="#0C1215"><tspan x="241.4" y="11">500</tspan></text><text font-family="OpenSans-Bold, Open Sans" font-size="10" font-weight="bold" fill="#0C1215"><tspan x="241.4" y="347">200</tspan></text><text font-family="OpenSans-Bold, Open Sans" font-size="10" font-weight="bold" fill="#0C1215"><tspan x="241.4" y="397">300</tspan></text><text font-family="OpenSans-Bold, Open Sans" font-size="10" font-weight="bold" fill="#0C1215"><tspan x="241.4" y="447">400</tspan></text><text font-family="OpenSans-Bold, Open Sans" font-size="10" font-weight="bold" fill="#0C1215"><tspan x="241.4" y="497">500</tspan></text><path d="M250 275a25 25 0 100-50 25 25 0 000 50z" stroke="#111" stroke-dasharray="2,2"/><path d="M250 325a75 75 0 100-150 75 75 0 000 150z" stroke="#111" stroke-dasharray="2,2"/><path d="M250 375a125 125 0 100-250 125 125 0 000 250z" stroke="#111" stroke-dasharray="2,2"/><path d="M250 425a175 175 0 100-350 175 175 0 000 350z" stroke="#111" stroke-dasharray="2,2"/><path d="M250 475a225 225 0 100-450 225 225 0 000 450z" stroke="#111" stroke-dasharray="2,2"/><circle stroke="#111" cx="250" cy="250" r="50"/><circle stroke="#111" cx="250" cy="250" r="100"/><circle stroke="#111" cx="250" cy="250" r="150"/><circle stroke="#111" cx="250" cy="250" r="200"/><circle stroke="#111" cx="250" cy="250" r="250"/><path fill="#111" d="M257 251h-6v6h-1v-6h-6v-1h6v-6h1v6h6z"/></g></svg>